<svg xmlns="http://www.w3.org/2000/svg" xmlns:xlink="http://www.w3.org/1999/xlink" width="680" zoomAndPan="magnify" viewBox="0 0 510 84.749997" height="113" preserveAspectRatio="xMidYMid meet" version="1.0"><defs><filter x="0%" y="0%" width="100%" height="100%" id="affd5af147"><feColorMatrix values="0 0 0 0 1 0 0 0 0 1 0 0 0 0 1 0 0 0 1 0" color-interpolation-filters="sRGB"/></filter><g/><clipPath id="c6a99b60fc"><path d="M 0.75 0 L 509.25 0 L 509.25 84.5 L 0.75 84.5 Z M 0.75 0 " clip-rule="nonzero"/></clipPath><clipPath id="f0abce4616"><path d="M 34 0 L 119 0 L 119 84.5 L 34 84.5 Z M 34 0 " clip-rule="nonzero"/></clipPath><mask id="7586875e63"><g filter="url(#affd5af147)"><rect x="-51" width="612" fill="#000000" y="-8.475" height="101.699996" fill-opacity="0.8"/></g></mask><clipPath id="acc415d9c2"><path d="M 0.167969 0 L 84.957031 0 L 84.957031 84.5 L 0.167969 84.5 Z M 0.167969 0 " clip-rule="nonzero"/></clipPath><clipPath id="bdd4876df3"><path d="M 42.5625 0 C 19.148438 0 0.167969 18.980469 0.167969 42.394531 C 0.167969 65.808594 19.148438 84.789062 42.5625 84.789062 C 65.976562 84.789062 84.957031 65.808594 84.957031 42.394531 C 84.957031 18.980469 65.976562 0 42.5625 0 Z M 42.5625 0 " clip-rule="nonzero"/></clipPath><clipPath id="c62ddd224a"><rect x="0" width="85" y="0" height="85"/></clipPath><clipPath id="edc53ea6de"><path d="M 1.03125 19 L 67.304688 19 L 67.304688 65 L 1.03125 65 Z M 1.03125 19 " clip-rule="nonzero"/></clipPath><clipPath id="95f2c72cc1"><path d="M 17 7.132812 L 39 7.132812 L 39 21 L 17 21 Z M 17 7.132812 " clip-rule="nonzero"/></clipPath><clipPath id="7c8d17cbd8"><path d="M 43 68 L 53 68 L 53 77.425781 L 43 77.425781 Z M 43 68 " clip-rule="nonzero"/></clipPath><clipPath id="b8f05e6918"><path d="M 11 68 L 20 68 L 20 77.425781 L 11 77.425781 Z M 11 68 " clip-rule="nonzero"/></clipPath></defs><g clip-path="url(#c6a99b60fc)"><path fill="#ffffff" d="M 0.75 0 L 509.25 0 L 509.25 84.5 L 0.75 84.5 Z M 0.75 0 " fill-opacity="1" fill-rule="nonzero"/><path fill="#ffffff" d="M 0.75 0 L 509.25 0 L 509.25 84.5 L 0.75 84.5 Z M 0.75 0 " fill-opacity="1" fill-rule="nonzero"/></g><g clip-path="url(#f0abce4616)"><g mask="url(#7586875e63)"><g transform="matrix(1, 0, 0, 1, 34, 0)"><g clip-path="url(#c62ddd224a)"><g clip-path="url(#acc415d9c2)"><g clip-path="url(#bdd4876df3)"><path fill="#f5d702" d="M 0.167969 0 L 84.957031 0 L 84.957031 84.789062 L 0.167969 84.789062 Z M 0.167969 0 " fill-opacity="1" fill-rule="nonzero"/></g></g></g></g></g></g><g clip-path="url(#edc53ea6de)"><path fill="#3f4752" d="M 4.375 57.742188 L 53.695312 57.742188 L 53.695312 30.761719 C 53.695312 29.753906 54.109375 28.742188 54.839844 28.011719 L 61.945312 20.851562 C 63.320312 19.476562 65.613281 19.566406 66.851562 21.128906 C 67.949219 22.457031 67.722656 24.476562 66.484375 25.714844 L 60.296875 31.910156 L 60.296875 60.496094 C 60.296875 62.652344 58.554688 64.351562 56.445312 64.351562 L 4.558594 64.351562 C 2.816406 64.351562 1.257812 63.109375 1.078125 61.367188 C 0.847656 59.441406 2.40625 57.742188 4.375 57.742188 Z M 4.375 57.742188 " fill-opacity="1" fill-rule="nonzero"/></g><path fill="#2c7bc3" d="M 46.363281 53.382812 L 9.464844 53.382812 C 7.675781 53.382812 6.300781 52.28125 6.484375 50.996094 L 10.382812 24.660156 C 10.5625 23.558594 11.847656 22.734375 13.359375 22.734375 L 42.421875 22.734375 C 43.933594 22.734375 45.261719 23.558594 45.398438 24.660156 L 49.296875 50.996094 C 49.523438 52.28125 48.148438 53.382812 46.363281 53.382812 Z M 21.105469 25.992188 C 21.105469 25.210938 20.234375 24.613281 19.136719 24.613281 C 18.082031 24.613281 17.164062 25.257812 17.164062 25.992188 L 17.164062 28.375 C 17.164062 29.15625 18.035156 29.753906 19.136719 29.753906 C 20.191406 29.753906 21.105469 29.109375 21.105469 28.375 Z M 27.9375 43.609375 C 25.78125 43.609375 23.671875 42.464844 22.070312 40.71875 C 20.464844 38.929688 19.320312 36.636719 18.722656 34.019531 C 18.171875 36.683594 18.769531 39.617188 20.375 42.050781 C 21.152344 43.242188 22.253906 44.34375 23.535156 45.125 C 24.820312 45.90625 26.378906 46.410156 27.9375 46.410156 C 29.496094 46.410156 31.054688 45.949219 32.382812 45.125 C 33.664062 44.34375 34.765625 43.242188 35.542969 42.050781 C 37.148438 39.617188 37.746094 36.683594 37.195312 34.019531 C 36.597656 36.636719 35.453125 38.929688 33.847656 40.71875 C 32.152344 42.464844 30.042969 43.609375 27.9375 43.609375 Z M 38.660156 25.992188 C 38.660156 25.210938 37.789062 24.613281 36.691406 24.613281 C 35.636719 24.613281 34.71875 25.257812 34.71875 25.992188 L 34.71875 28.375 C 34.71875 29.15625 35.589844 29.753906 36.691406 29.753906 C 37.746094 29.753906 38.660156 29.109375 38.660156 28.375 Z M 38.660156 25.992188 " fill-opacity="1" fill-rule="nonzero"/><g clip-path="url(#95f2c72cc1)"><path fill="#2c7bc3" d="M 36.738281 20.164062 L 36.691406 20.164062 C 35.683594 20.164062 34.902344 19.335938 34.902344 18.375 L 34.902344 17.871094 C 34.902344 13.878906 31.511719 10.664062 27.476562 10.941406 C 23.902344 11.171875 21.015625 14.566406 21.015625 18.144531 L 21.015625 18.375 C 21.015625 19.382812 20.191406 20.164062 19.226562 20.164062 L 19.179688 20.164062 C 18.171875 20.164062 17.394531 19.335938 17.394531 18.375 L 17.394531 18.191406 C 17.394531 12.5 21.75 7.546875 27.476562 7.269531 C 33.480469 6.996094 38.523438 11.859375 38.523438 17.871094 L 38.523438 18.375 C 38.523438 19.335938 37.699219 20.164062 36.738281 20.164062 Z M 36.738281 20.164062 " fill-opacity="1" fill-rule="nonzero"/></g><g clip-path="url(#7c8d17cbd8)"><path fill="#3f4752" d="M 44.183594 70.53125 C 44.027344 70.769531 43.894531 71.023438 43.785156 71.285156 C 43.675781 71.550781 43.597656 71.824219 43.542969 72.105469 C 43.488281 72.386719 43.460938 72.671875 43.464844 72.957031 C 43.464844 73.242188 43.496094 73.527344 43.554688 73.808594 C 43.609375 74.085938 43.695312 74.359375 43.804688 74.621094 C 43.917969 74.886719 44.050781 75.136719 44.210938 75.375 C 44.371094 75.609375 44.554688 75.832031 44.757812 76.03125 C 44.960938 76.234375 45.183594 76.410156 45.421875 76.570312 C 45.660156 76.726562 45.910156 76.859375 46.175781 76.96875 C 46.441406 77.074219 46.714844 77.15625 46.996094 77.210938 C 47.277344 77.265625 47.558594 77.292969 47.84375 77.289062 C 48.128906 77.289062 48.414062 77.257812 48.695312 77.199219 C 48.972656 77.144531 49.246094 77.058594 49.507812 76.949219 C 49.773438 76.835938 50.023438 76.699219 50.257812 76.539062 C 50.496094 76.378906 50.714844 76.199219 50.917969 75.992188 C 51.117188 75.789062 51.296875 75.570312 51.453125 75.332031 C 51.609375 75.089844 51.742188 74.839844 51.851562 74.574219 C 51.960938 74.308594 52.039062 74.035156 52.09375 73.753906 C 52.148438 73.472656 52.175781 73.191406 52.171875 72.902344 C 52.171875 72.617188 52.140625 72.335938 52.082031 72.054688 C 52.027344 71.773438 51.941406 71.5 51.832031 71.238281 C 51.71875 70.972656 51.585938 70.722656 51.425781 70.488281 C 51.265625 70.25 51.082031 70.03125 50.878906 69.828125 C 50.675781 69.628906 50.453125 69.449219 50.214844 69.292969 C 49.976562 69.132812 49.726562 69 49.460938 68.894531 C 49.195312 68.785156 48.921875 68.703125 48.640625 68.648438 C 48.359375 68.597656 48.078125 68.570312 47.792969 68.570312 C 47.507812 68.574219 47.222656 68.601562 46.941406 68.660156 C 46.664062 68.71875 46.390625 68.800781 46.128906 68.914062 C 45.863281 69.023438 45.613281 69.160156 45.378906 69.320312 C 45.140625 69.480469 44.921875 69.664062 44.71875 69.867188 C 44.519531 70.070312 44.339844 70.292969 44.183594 70.53125 Z M 44.183594 70.53125 " fill-opacity="1" fill-rule="nonzero"/></g><g clip-path="url(#b8f05e6918)"><path fill="#3f4752" d="M 15.421875 68.527344 C 17.851562 68.527344 19.777344 70.5 19.777344 72.882812 C 19.777344 75.316406 17.804688 77.242188 15.421875 77.242188 C 12.992188 77.242188 11.070312 75.269531 11.070312 72.882812 C 11.070312 70.5 13.039062 68.527344 15.421875 68.527344 Z M 15.421875 68.527344 " fill-opacity="1" fill-rule="nonzero"/></g><g fill="#2c7bc3" fill-opacity="1"><g transform="translate(71.910565, 47.72564)"><g><path d="M 1.617188 0 L 2.324219 0 L 4.648438 -10.949219 L 7.136719 0.253906 L 7.824219 0.253906 L 15.085938 -10.949219 L 12.765625 0 L 15.398438 0 L 18.101562 -12.710938 L 15.46875 -12.710938 L 9.277344 -3.121094 L 7.117188 -12.710938 L 4.320312 -12.710938 Z M 1.617188 0 "/></g></g></g><g fill="#2c7bc3" fill-opacity="1"><g transform="translate(88.879618, 47.72564)"><g><path d="M 8.96875 -12.980469 L 1.054688 0 L 1.816406 0 L 4.121094 -3.847656 L 8.535156 -3.847656 L 9.207031 0 L 12.054688 0 L 9.675781 -12.980469 Z M 4.519531 -4.539062 L 7.535156 -9.570312 L 8.40625 -4.539062 Z M 4.519531 -4.539062 "/></g></g></g><g fill="#2c7bc3" fill-opacity="1"><g transform="translate(101.96485, 47.72564)"><g><path d="M 1.617188 0 L 4.25 0 L 5.445312 -5.648438 L 7.027344 -5.648438 L 8.695312 0 L 11.601562 0 L 9.859375 -5.957031 C 11.21875 -6.464844 12.308594 -7.570312 12.636719 -9.167969 C 12.710938 -9.460938 12.746094 -9.75 12.746094 -10.023438 C 12.746094 -11.730469 11.457031 -12.710938 9.640625 -12.710938 L 4.320312 -12.710938 Z M 5.59375 -6.335938 L 6.808594 -12.019531 L 8.40625 -12.019531 C 9.496094 -12.019531 10.113281 -11.183594 10.113281 -10.003906 C 10.113281 -9.75 10.078125 -9.476562 10.023438 -9.1875 C 9.660156 -7.515625 8.496094 -6.335938 7.191406 -6.335938 Z M 5.59375 -6.335938 "/></g></g></g><g fill="#2c7bc3" fill-opacity="1"><g transform="translate(114.26968, 47.72564)"><g><path d="M 5.390625 -5.355469 L 6.953125 -12.710938 L 4.320312 -12.710938 L 1.617188 0 L 4.25 0 L 5.175781 -4.375 L 7.824219 -6.5 L 10.546875 0 L 13.328125 0 L 9.96875 -8.226562 L 15.523438 -12.710938 L 14.507812 -12.710938 Z M 5.390625 -5.355469 "/></g></g></g><g fill="#2c7bc3" fill-opacity="1"><g transform="translate(128.226048, 47.72564)"><g><path d="M 10.292969 -6.699219 L 5.664062 -6.699219 L 6.789062 -12 L 13.253906 -12 L 13.398438 -12.710938 L 4.320312 -12.710938 L 1.617188 0 L 10.695312 0 L 10.839844 -0.707031 L 4.394531 -0.707031 L 5.519531 -6.007812 L 10.148438 -6.007812 Z M 10.292969 -6.699219 "/></g></g></g><g fill="#2c7bc3" fill-opacity="1"><g transform="translate(139.169732, 47.72564)"><g><path d="M 2.996094 -12.726562 L 2.832031 -12 L 7.0625 -12.019531 L 4.503906 0 L 7.152344 0 L 9.714844 -12.019531 L 13.90625 -12 L 14.070312 -12.691406 Z M 2.996094 -12.726562 "/></g></g></g><g fill="#2c7bc3" fill-opacity="1"><g transform="translate(150.803063, 47.72564)"><g><path d="M 14.925781 -12.710938 L 12.074219 -12.710938 L 12.527344 -10.3125 L 8.277344 -3.160156 L 6.609375 -12.710938 L 3.738281 -12.710938 L 6.171875 0.253906 L 6.863281 0.253906 L 12.691406 -9.367188 L 14.488281 0.253906 L 15.179688 0.253906 L 23.078125 -12.710938 L 22.3125 -12.710938 L 16.613281 -3.160156 Z M 14.925781 -12.710938 "/></g></g></g><g fill="#2c7bc3" fill-opacity="1"><g transform="translate(172.164114, 47.72564)"><g><path d="M 8.96875 -12.980469 L 1.054688 0 L 1.816406 0 L 4.121094 -3.847656 L 8.535156 -3.847656 L 9.207031 0 L 12.054688 0 L 9.675781 -12.980469 Z M 4.519531 -4.539062 L 7.535156 -9.570312 L 8.40625 -4.539062 Z M 4.519531 -4.539062 "/></g></g></g><g fill="#2c7bc3" fill-opacity="1"><g transform="translate(185.249346, 47.72564)"><g><path d="M 6.609375 -12.710938 L 3.738281 -12.710938 L 6.171875 0.253906 L 6.863281 0.253906 L 14.761719 -12.710938 L 14 -12.710938 L 8.277344 -3.160156 Z M 6.609375 -12.710938 "/></g></g></g><g fill="#2c7bc3" fill-opacity="1"><g transform="translate(198.334578, 47.72564)"><g><path d="M 10.292969 -6.699219 L 5.664062 -6.699219 L 6.789062 -12 L 13.253906 -12 L 13.398438 -12.710938 L 4.320312 -12.710938 L 1.617188 0 L 10.695312 0 L 10.839844 -0.707031 L 4.394531 -0.707031 L 5.519531 -6.007812 L 10.148438 -6.007812 Z M 10.292969 -6.699219 "/></g></g></g></svg>